<svg xmlns="http://www.w3.org/2000/svg" width="240" height="240" viewBox="0 0 240 240">
  <g fill="#fff">
    <circle cx="18" cy="26" r="1.2" opacity="0.95" />
    <circle cx="42" cy="88" r="0.9" opacity="0.75" />
    <circle cx="64" cy="44" r="0.8" opacity="0.70" />
    <circle cx="92" cy="22" r="1.0" opacity="0.85" />
    <circle cx="118" cy="64" r="0.9" opacity="0.72" />
    <circle cx="148" cy="34" r="0.8" opacity="0.65" />
    <circle cx="172" cy="76" r="1.1" opacity="0.90" />
    <circle cx="210" cy="28" r="0.9" opacity="0.78" />
    <circle cx="26" cy="134" r="0.8" opacity="0.65" />
    <circle cx="54" cy="164" r="1.0" opacity="0.82" />
    <circle cx="78" cy="126" r="0.9" opacity="0.74" />
    <circle cx="112" cy="148" r="1.2" opacity="0.92" />
    <circle cx="140" cy="116" r="0.8" opacity="0.64" />
    <circle cx="168" cy="156" r="0.9" opacity="0.76" />
    <circle cx="206" cy="124" r="1.0" opacity="0.84" />
    <circle cx="222" cy="170" r="0.8" opacity="0.62" />
    <circle cx="20" cy="210" r="1.0" opacity="0.86" />
    <circle cx="48" cy="212" r="0.8" opacity="0.60" />
    <circle cx="84" cy="204" r="1.1" opacity="0.90" />
    <circle cx="116" cy="214" r="0.9" opacity="0.70" />
    <circle cx="150" cy="196" r="0.8" opacity="0.62" />
    <circle cx="176" cy="222" r="1.2" opacity="0.93" />
    <circle cx="204" cy="212" r="0.9" opacity="0.72" />
    <circle cx="232" cy="210" r="0.8" opacity="0.58" />
    <circle cx="206" cy="78" r="0.7" opacity="0.55" />
    <circle cx="14" cy="78" r="0.7" opacity="0.55" />
    <circle cx="196" cy="150" r="0.7" opacity="0.55" />
    <circle cx="96" cy="92" r="0.7" opacity="0.55" />
    <circle cx="132" cy="24" r="0.7" opacity="0.55" />
    <circle cx="36" cy="48" r="0.7" opacity="0.55" />
  </g>
</svg>

