<?xml version="1.0" encoding="UTF-8"?>
<svg id="Layer_1" data-name="Layer 1" xmlns="http://www.w3.org/2000/svg" xmlns:xlink="http://www.w3.org/1999/xlink" viewBox="0 0 517.92 511.99">
  <defs>
    <style>
      .cls-1 {
        fill: #1b293d;
      }

      .cls-2 {
        fill: #18293c;
      }

      .cls-3 {
        fill: #d53a36;
      }

      .cls-4 {
        fill: url(#linear-gradient-2);
      }

      .cls-5 {
        fill: #172d45;
      }

      .cls-6 {
        fill: #fff;
      }

      .cls-7 {
        mask: url(#mask);
      }

      .cls-8 {
        fill: none;
      }

      .cls-9 {
        fill: url(#linear-gradient-3);
      }

      .cls-10 {
        fill: #8a8b9c;
      }

      .cls-11 {
        fill: #1b293c;
      }

      .cls-12 {
        fill: #1b2a3d;
      }

      .cls-13 {
        fill: #22344b;
      }

      .cls-14 {
        fill: #afbcce;
      }

      .cls-15 {
        fill: #9ca6b2;
      }

      .cls-16 {
        fill: #1c2a3c;
      }

      .cls-17 {
        fill: #c0cbdb;
      }

      .cls-18 {
        fill: #fefeff;
      }

      .cls-19 {
        fill: #697c95;
      }

      .cls-20 {
        fill: #e23c3b;
      }

      .cls-21 {
        fill: #1c2a3d;
      }

      .cls-22 {
        fill: #fefefe;
      }

      .cls-23 {
        fill: #dae0e9;
      }

      .cls-24 {
        fill: url(#linear-gradient);
      }

      .cls-25 {
        fill: #f9fafa;
      }

      .cls-26 {
        fill: #8492a7;
      }

      .cls-27 {
        filter: url(#luminosity-noclip);
      }
    </style>
    <linearGradient id="linear-gradient" x1="301.15" y1="13.05" x2="231.35" y2="390.14" gradientUnits="userSpaceOnUse">
      <stop offset=".14" stop-color="#f97a25"/>
      <stop offset="1" stop-color="#f03735"/>
    </linearGradient>
    <linearGradient id="linear-gradient-2" x1="301.15" y1="13.05" x2="231.35" y2="390.14" xlink:href="#linear-gradient"/>
    <filter id="luminosity-noclip" x="0" y="0" width="517.92" height="511.99" color-interpolation-filters="sRGB" filterUnits="userSpaceOnUse">
      <feFlood flood-color="#fff" result="bg"/>
      <feBlend in="SourceGraphic" in2="bg"/>
    </filter>
    <linearGradient id="linear-gradient-3" x1="0" y1="256" x2="511.99" y2="256" gradientUnits="userSpaceOnUse">
      <stop offset="0" stop-color="#000"/>
      <stop offset=".99" stop-color="#000"/>
      <stop offset=".99" stop-color="#010101"/>
      <stop offset=".99" stop-color="#080808"/>
      <stop offset="1" stop-color="#141414"/>
      <stop offset="1" stop-color="#252525"/>
      <stop offset="1" stop-color="#3b3b3b"/>
      <stop offset="1" stop-color="#565656"/>
      <stop offset="1" stop-color="#777"/>
      <stop offset="1" stop-color="#9c9c9c"/>
      <stop offset="1" stop-color="#c7c7c7"/>
      <stop offset="1" stop-color="#f5f5f5"/>
      <stop offset="1" stop-color="#fff"/>
    </linearGradient>
    <mask id="mask" x="0" y="0" width="517.92" height="511.99" maskUnits="userSpaceOnUse">
      <g class="cls-27">
        <g>
          <rect class="cls-6" x="0" y="0" width="517.92" height="511.99"/>
          <rect class="cls-9" y="0" width="511.99" height="511.99"/>
        </g>
      </g>
    </mask>
  </defs>
  <g id="Generative_Object" data-name="Generative Object">
    <polygon class="cls-6" points="0 511.74 0 0 511.99 0 511.99 511.99 0 511.99 0 511.74"/>
    <path class="cls-24" d="M367.19,261.24l-15.79,12.78-10.68,6.79c-2.77,1.76-5.26,3.56-7.46,6.1-4.84,5.6-9.94,10.69-15.45,15.63l-10.97-14.73-3.29-4.71-7.04-4.47c-.6-.38-1.32-.79-2.04-1.04-.11-.8.13-1.6.43-2.53,2.38-7.36,3.86-14.62,4.76-22.56,6.6.83,9.54-5.55,11.66-12.03,27.17-8.51,50.15-26.12,65.23-49.84.89-1.4,1.62-2.63,1.68-4.11,1,.15,1.31-.82,1.58-1.51l1.3-3.33c.2-.52.39-.81.38-1.62-.01-.98.32-2.24.59-3.44.93-4.09-1.23-7.76-5.26-8.89-7.91-2.23-22.44.73-31.91,2.68l-34.28,7.09c-1.73-10.7-3.02-21.49-5.43-31.95-.32-.19-.36-1.03.11-1.35.23-.16-.79-.12-.84-.41-.33-1.86-1.34-3.47-2.47-5.27l-14.22-22.63c-2.76-4.39-7.4-6.29-12.32-4.31l-9.96,4c-5.96,2.4-12.39,2.27-18.53.56l-10.55-2.93c-5.78-1.61-11.55.67-15.4,5.55-6.59,8.36-12.12,17.87-14.81,28.36-2.8,10.92-3.63,21.78-5.54,32.5l-27.23-4.34c-8.34-1.34-16.56-2.6-24.76-1.51l-2.71.36c-.05-.56-.43-.64-.98-.6-5.67.37-12.72,2.52-13.17,7.56-.74,8.32,7.23,20.19,13.16,27.06,14.73,17.08,34.07,28.78,55.65,34.69.22,2.43,1.41,4.31,2.06,6.44.43,1.43,1.26,2.01,2.31,2.88,3.73,3.08,4.71,1.84,8.76,2.09-1.47,1.55,1.66,18.6,3.14,25.68-4.21,1.81-7.43,4.93-10.01,9.13-4.55,7.41-9.94,13.83-15.4,20.39l-57.61,25.45c-4.12,1.82-7.91,3.69-11.29,6.19l-7.69-4.43-8.01-6.31-13.23,11.43c-4.15,3.59-8.65,6.46-13.73,8.72l-9.83,4.38c-.37-1.11.58-.87.78-1.1.28-.33-.15-.78-.54-.64-1.65-.81-1.76-2.9-2.05-4.55-.28.63-.39.92-1.06.76l-.39-2.17c-.23-1.29-1.09-1.93-1.17-3.38-1.33.82-1.7,1.81-1.39,3.08-.89-.27-1.38.29-1.23.9.1.44.12.81.88,1.06-.29.38-1.03-.18-1.25-.29-.25.68-.43,1.14-.7,1.31-.39.26-.99.31-1.59-.19-.68.94,1.18,2.53.11,3.17-.42.25-.96.08-1.88-.4.13.86.63,1.65.14,2.56-.44-.42-.99-.66-1.51-.54-.19.05-.23.42-.09.65l.48.81c.33.56-.11,1.1-.44.99-.27-.09-.45-.92-1.5-.7l1.63,2.7c-.74-.67-1.46-1.11-2.32-.62-.52.29-.3.94,0,1.91-.34.24-1.44.74-1.79,1.27-.44-.44-1.78-1.45-2.29-.5-.12.22.62,1.17.38,1.18-1.06.06-.48,2.21-2.22,3.46-1.09-1.6-1.34-3.21-1.68-5.05-1.83.51-1.38,4.12-3.38,5.54-.01-1.26-.37-2.09-1.66-2.72.53-.41,1.13-1,.93-1.54l-.56-1.54c-.09-.24.16-1.14-.08-1-.16.09-1.11,0-1.05-.25.15-.61.58-1.32.38-1.73-.29-.62-.95-.63-1.33-.38.78-1.27.21-1.72-.08-2.31.21-.78.26-1.34-.58-1.69-.1,1.53-.76,2.71-1.44,3.61.14.4.73,1.37.22,1.6l-1.37.63c.54.39.71.52.82.68.18.25.16.65,0,.74s-1.13-.12-1.23.04c-.4.64.77,1.43,1.48,1.66-1.15.03-2.36.16-2.06,1.38.13.52.41.99,1.06,1.73-.97-.28-2.19-.3-2.6.57.42.4.72,1.12.19,1.32-.41.15-.79.14-1.27.22C10,320.51.43,267.02,9.9,214.06c3.81-21.29,10.24-41.85,19.2-61.32C56.28,93.72,105.09,46.56,165.04,21.8,230.11-5.08,304.6-1.7,367.06,30.68c20.76,10.76,40.05,24.35,57.44,40.44,44.22,40.92,73.02,96.92,80.27,156.4,5.27,43.24-2.26,86.87-19.44,125.81l-13-9.09c-7.08-4.95-14.18-9.63-20.7-15.74-1.84.69-3.11.28-4.42-.7-7.07-5.29-13.57-11.77-19.67-18.18-2.15.35-3.98-.03-5.31-1.84-5.51-7.56-11.34-14.64-17.75-21.66-3.59-3.93-6.86-7.53-9.24-12.29-1.34-.21-2.53-.31-3.65-.82l-5.71-8.28-9.02-11.01c-.44-.54-1.08-1.08-1.64-1.1-.48-.02-1.35.41-1.8.96l-6.25,7.65Z"/>
    <path class="cls-11" d="M294.48,277.58c-7.08-2.49-14.45-4.09-22.1-4.74l-5.83-.5c-14.69-1.25-36.44,1.58-49.07,7.47,2-2.09,4.57-2.84,7.15-3.56l11.62-3.23c-2.58-4.06-6.01-7.08-9.41-10.29-4.62-4.37-8.6-8.77-11.73-14.42-.34,2.51.08,4.46-1.34,5.95-4.04-.26-5.03.98-8.76-2.09-.85-2.35-2.99-5.25-3.57-9.02,34.84,8.42,71.17,7.34,105.39-3.26,29.03-8.99,56.2-28.17,71.39-53.38-.06,1.48-.79,2.71-1.68,4.11-15.08,23.72-38.06,41.33-65.23,49.84-2.11,6.48-5.06,12.85-11.66,12.03-.91,7.93-2.39,15.2-4.76,22.56-.3.93-.54,1.73-.43,2.53Z"/>
    <path class="cls-1" d="M296.52,278.62l7.04,4.47,3.29,4.71c-6.31-6.54-16.05-7.81-25.32-6.01l-24.58,4.77c11.18,1.01,22.04,2.8,32.66,6.25-2.35.85-4.41-.04-6.6-.18l-12.74-.79-34.88.12c-7.52.03-14.59,1.32-21.92,3.23.88-1.28,2.43-1.27,3.64-1.98l20.01-12.22-13.53,3.49c6.28-3.7,12.83-7.51,20.4-9.42,15.23-3.84,35.05-1.48,49.01,2.69,1.22.36,2.25,1.19,3.53.87Z"/>
    <path class="cls-5" d="M355.18,277.74c-.58-.48-.46-.46-.36-.64.3-.5-.14-1.16-.36-1.72-.3-.77-1.43-.29-.95.7h-1.03c-.04-.12.69-.57.33-1.11-.2-.3-1.26-.41-1.41-.95l15.79-12.78-12.01,16.5Z"/>
    <path class="cls-6" d="M361.01,301.03c-.13-.54-.39-.41-.7-.28l-.82.34c-.83.35-1.24.72-2.05.3,1.39-1.64,5.74-1.63,6.86-7.17.39-.18.99-.77,1.13-.99.16-.26,1.19.28.39,1.1,1.34.54,2.17-1.02,2.97-1.58l2.8-1.96,4.05-1.6-12,10.06-2.63,1.77Z"/>
    <path class="cls-2" d="M297.93,289.22c7.06.48,11.42,4.61,15.96,10.5-5.67-2.92-10.53-6.54-15.96-10.5Z"/>
    <path class="cls-6" d="M363.33,291.1c-1.39.42-1.77,1.56-2.45,2.45l-10.78,14.1c-.4-1.56.98-2.47,1.83-3.51,5.39-6.56,9.98-13.37,14.26-20.65.68.8-.1,1.46-.31,1.78-.44.66-.12,1.17.4,1.72-1.01-.25-1.37.23-1.56.52-.15.22-.11.62.33,1.36-.76-.06-.92-.03-1.52.46-.47.38-.47,1-.19,1.78Z"/>
    <path class="cls-6" d="M361.01,301.03c-3.71,2.51-7.03,5.42-10.56,8.58l6.99-8.22c.81.43,1.22.05,2.05-.3l.82-.34c.31-.13.57-.26.7.28Z"/>
    <path class="cls-6" d="M400.24,284.85c-1.44.04-2.06-1.31-2.77-2.31-1.29-1.82-3.3-3.43-2.75-6.14,1.39,3.12,2.96,5.61,5.52,8.45Z"/>
    <path class="cls-6" d="M346.92,308.35l-5.69,4.74c-.35.15-.58-.03-.69-.17l5.67-4.85c.3-.26.72-.06.7.28Z"/>
    <path class="cls-6" d="M344.17,314.61c.75-1.61,2.09-3.43,4.45-3.55l-4.45,3.55Z"/>
    <path class="cls-6" d="M374.99,270.35c.2.64-1.39,2.1-1.51,1.49-.09-.43.27-.63.39-.91l.36-.84c.08-.18.68-.02.76.26Z"/>
    <path class="cls-6" d="M353.12,318.27c-1.04.01-1.85-.47-2.72-.94,1.43-.97,2.05.67,2.72.94Z"/>
    <path class="cls-6" d="M346.33,314.83c.48-.47,1.11-.16,1.11-.01,0,.22-.44.59-.7.77-.38.26-1.01-.16-.42-.76Z"/>
    <path class="cls-12" d="M305.22,145.56c2.41,10.46,3.7,21.25,5.43,31.95l.35,3.02c1.67.96,2.06,2.52,2.34,4.2l1.39,8.55,13.87,5.66c4.79,1.95-1.42,6.8-6.88,9.96-16.3,9.43-34.27,15-53.17,16.66l-17.11,1.51c1.85-1.16,3.69-.95,5.51-1.58l20.74-7.13c8.39-2.88,17.04-4.63,24.65-9.34l4.06-2.51c3.75-2.32,7.66-5.35,8.49-10.28-2.07,4.42-5.65,7.62-9.98,10.31-12.68,7.88-26.95,11.92-42.4,12.93-18.15,1.18-35.9-.89-52.36-8.03-4.29-1.86-8.04-4.2-11.1-7.41l-2.16-4.64c-4.56,2.1-9.52,3-14.08,2.46-1.85,3.76-7.58,1.12-8.79,3.16-4.79-1.05-9.75-1.86-13.99-4.34-3.39-1.98-6.71-4.03-9.95-6.53.05,1.74.65,3.16,1.09,4.6l.92,3.07c-2.47-1.83-3.71-4.92-6.08-7.18-.32-.3-1.76-.1-2.17-.05-.48.06-.47.94-.91,1.6-3.82-4.99-9.64-13.62-6.77-18.03,1.87-2.87,6.32-3.56,9.81-4.03l2.71-.36c8.19-1.09,16.42.17,24.76,1.51l27.23,4.34c-.39,2.18-.29,4.31-1.55,6.56-.71,1.27-.3,3.16-.48,4.35-.73,4.89-2.12,9.25,1.29,12.78l1.98-8.11c.1-.47-.02-.99.6-1.57,12.73,9.3,30.63,11.42,46.06,11.1l7.42-.16c1.65-.03,3.37-.15,5.14-.28l4.86-.36c0-.06-.05-.25-.26-.34l-8.34.08-1.41.44c-11.9.02-23.81-.72-35.37-4.12-16.68-4.9-19.9-10.41-19.7-10.33,1.06-.52,1.11.55,1.58.96,5.28,4.58,11.99,6.86,18.92,8.49l6.25-29.35c.63-2.96,1.31-5.77,2.43-8.55,4.09-10.19,17.75-4.17,34.22-7.82,7.9-1.75,14.89-5.97,19.46-12.46,4.65-1.3,8.35,5.54,15.19,6.98,2.54.53,5.09,0,6.23-2.37Z"/>
    <path class="cls-6" d="M381.5,180.07c-.48,0-.68.42-.52.78.11.25,0,.51.13.83-1.32,1.26-2.17,3.19-2.88,4.84-15.2,25.21-42.37,44.4-71.39,53.38-34.22,10.59-70.55,11.67-105.39,3.26.58,3.77,2.72,6.67,3.57,9.02-1.05-.87-1.88-1.45-2.31-2.88-.64-2.13-1.84-4.01-2.06-6.44-21.58-5.91-40.92-17.61-55.65-34.69-5.93-6.87-13.91-18.74-13.16-27.06.45-5.04,7.5-7.19,13.17-7.56.55-.04.93.04.98.6-3.49.46-7.94,1.16-9.81,4.03-2.88,4.4,2.95,13.03,6.77,18.03,4.21,5.51,9.02,10.52,14.17,15.2l-5.01-9.57-.92-3.07c.25-.45.12-.99.76-1.44,2.4,2.69,8.65,4.57,7.83,4.77.26-.06.51-.51.42-.74l-.16-.66c4.25,2.48,9.2,3.29,13.99,4.34,8.02,1.75,18.7,3.58,25.03-.99,3.06,3.21,6.81,5.55,11.1,7.41,16.45,7.14,34.21,9.22,52.36,8.03,15.46-1.01,29.72-5.05,42.4-12.93,4.33-2.69,7.9-5.89,9.98-10.31-.84,4.92-4.74,7.95-8.49,10.28l-4.06,2.51c-7.62,4.72-16.27,6.46-24.65,9.34l-20.74,7.13c-1.83.63-3.67.42-5.51,1.58l17.11-1.51c18.9-1.66,36.87-7.23,53.17-16.66,5.46-3.16,11.67-8,6.88-9.96l-13.87-5.66-1.39-8.55c-.27-1.68-.67-3.24-2.34-4.2l-.35-3.02,34.28-7.09c9.48-1.95,24-4.91,31.91-2.68,4.03,1.14,6.19,4.8,5.26,8.89-.27,1.2-.6,2.47-.59,3.44Z"/>
    <path class="cls-16" d="M378.24,186.52c.72-1.65,1.57-3.58,2.88-4.84l-1.3,3.33c-.27.69-.58,1.66-1.58,1.51Z"/>
    <path class="cls-16" d="M381.12,181.68c-.14-.32-.02-.58-.13-.83-.16-.37.04-.79.52-.78,0,.8-.18,1.09-.38,1.62Z"/>
    <g>
      <path class="cls-12" d="M122.62,341.11c-3.16,2.34-4.67,6.15-6.33,9.84-4.19,10.29-7.39,20.43-10.88,31.15l-18.27,56.14c-22.34-20.85-39.89-44.88-53.3-71.11.47-.09.86-.07,1.27-.22.54-.2.23-.93-.19-1.32.41-.87,1.63-.84,2.6-.57-.65-.74-.93-1.21-1.06-1.73-.31-1.22.9-1.35,2.06-1.38-.71-.23-1.88-1.02-1.48-1.66.1-.16,1.06.06,1.23-.04s.19-.49,0-.74c-.11-.16-.28-.3-.82-.68l1.37-.63c.5-.23-.08-1.2-.22-1.6.68-.9,1.33-2.08,1.44-3.61.84.34.79.91.58,1.69.29.59.86,1.04.08,2.31.37-.26,1.03-.24,1.33.38.2.41-.24,1.13-.38,1.73-.06.25.89.34,1.05.25.24-.14,0,.76.08,1l.56,1.54c.2.55-.4,1.13-.93,1.54,1.3.63,1.65,1.46,1.66,2.72,2-1.41,1.55-5.03,3.38-5.54.34,1.84.59,3.45,1.68,5.05,1.74-1.24,1.17-3.4,2.22-3.46.24-.01-.5-.96-.38-1.18.5-.95,1.85.06,2.29.5.35-.53,1.45-1.02,1.79-1.27-.29-.97-.52-1.62,0-1.91.87-.49,1.59-.05,2.32.62l-1.63-2.7c1.05-.22,1.23.61,1.5.7.32.11.77-.43.44-.99l-.48-.81c-.14-.23-.1-.6.09-.65.52-.13,1.06.11,1.51.54.5-.91-.01-1.7-.14-2.56.92.47,1.46.64,1.88.4,1.07-.64-.79-2.23-.11-3.17.6.5,1.2.45,1.59.19.26-.17.45-.64.7-1.31.22.11.96.67,1.25.29-.76-.26-.78-.62-.88-1.06-.14-.61.35-1.16,1.23-.9-.3-1.27.06-2.27,1.39-3.08.08,1.45.94,2.09,1.17,3.38l.39,2.17c.67.16.78-.13,1.06-.76.29,1.65.4,3.73,2.05,4.55.39-.14.82.31.54.64-.2.23-1.15,0-.78,1.1l9.83-4.38c5.07-2.26,9.58-5.13,13.73-8.72l13.23-11.43,8.01,6.31,7.69,4.43Z"/>
      <path class="cls-3" d="M55.72,359.34c.07-.48.68-.33.77-.02.05.19.1.53-.2.74-.15.11-.62-.32-.57-.72Z"/>
      <path class="cls-20" d="M55.55,360.97c.31-.57.67-.02.76.13.12.2.08.43-.08.52-.38.22-.94-.17-.68-.65Z"/>
    </g>
    <path class="cls-26" d="M199.06,204.03c-6.33,4.57-17.01,2.74-25.03.99,1.2-2.04,6.94.6,8.79-3.16,4.57.54,9.52-.36,14.08-2.46l2.16,4.64Z"/>
    <path class="cls-19" d="M152.1,201.83l5.01,9.57c-5.15-4.68-9.96-9.69-14.17-15.2.44-.66.43-1.54.91-1.6.41-.05,1.85-.25,2.17.05,2.38,2.26,3.61,5.35,6.08,7.18Z"/>
    <path class="cls-23" d="M201.92,195.22l-1.98,8.11c-3.4-3.53-2.01-7.89-1.29-12.78l2.59,1.44c-.14,1.19.2,2.3.68,3.23Z"/>
    <path class="cls-17" d="M160.04,200.68l.16.66c.08.22-.16.67-.42.74.82-.2-5.43-2.08-7.83-4.77-.64.45-.52.99-.76,1.44-.44-1.45-1.04-2.87-1.09-4.6,3.24,2.51,6.56,4.55,9.95,6.53Z"/>
    <path class="cls-10" d="M256,204.58v-.46s1.41-.44,1.41-.44l8.34-.08c.2.09.26.28.26.34l-4.86.36c-1.77.13-3.49.24-5.14.28Z"/>
    <g>
      <path class="cls-18" d="M304.48,143.8c.13.73-.77,1.73-1.65,2.38-3.83,2.81-10.64-2.56-13.92-8.5-1.81-3.29-1.6-7.07-2.18-10.61-.72,3.69-.13,7.3-1.64,10.68-.45,1.02-.8,2.5-1.3,3.2-4.57,6.48-11.56,10.71-19.46,12.46-16.47,3.65-30.13-2.37-34.22,7.82-1.11,2.78-1.8,5.59-2.43,8.55l-6.25,29.35c-6.94-1.63-13.64-3.92-18.92-8.49-.48-.41-.53-1.48-1.58-.96.39-.77-.35-1.15-.41-1.54-.09-.71-.26-1.13-.78-2.08-.6.77-.2,1.57.12,2.14.26.47.42,1.22,1.07,1.49-.21-.09,3.02,5.43,19.7,10.33,11.57,3.4,23.47,4.14,35.37,4.12v.46s-7.42.16-7.42.16c-15.42.33-33.33-1.8-46.06-11.1-.62.58-.5,1.1-.6,1.57-.48-.94-.81-2.04-.68-3.23l-2.59-1.44c.18-1.19-.23-3.08.48-4.35,1.26-2.25,1.16-4.38,1.55-6.56,1.91-10.72,2.73-21.58,5.54-32.5,2.69-10.49,8.22-20,14.81-28.36,3.84-4.88,9.62-7.15,15.4-5.55l10.55,2.93c6.14,1.71,12.57,1.83,18.53-.56l9.96-4c4.92-1.98,9.56-.08,12.32,4.31l14.22,22.63c1.13,1.8,2.14,3.41,2.47,5.27Z"/>
      <path class="cls-14" d="M304.48,143.8c.05.29,1.07.25.84.41-.46.32-.43,1.16-.11,1.35-1.14,2.36-3.69,2.9-6.23,2.37-6.84-1.44-10.53-8.28-15.19-6.98.5-.7.85-2.18,1.3-3.2,1.51-3.38.92-7,1.64-10.68.58,3.55.36,7.32,2.18,10.61,3.27,5.94,10.08,11.32,13.92,8.5.88-.64,1.78-1.65,1.65-2.38Z"/>
      <path class="cls-11" d="M249.05,145.83c-8.92.19-17.97-.66-20.4-9.92-1.32-5.01-.68-10.43,1.48-15.15,1.75-4.24,5.89-6.25,10.36-5.09l11.17,2.9c-3.08,2.14-5.98,4.23-7.79,7.44-3.85,6.81-1.52,15.44,5.19,19.82Z"/>
      <path class="cls-13" d="M294.74,141.08c-1.2,1.78-4.64-2.93-5.34-5.44-1.57-5.63-2.15-11.31-1.67-17.44,2.25,2.03,3.41,4.15,4.8,6.43,1.56,2.56,3.69,5.02,4.15,8.15.4,2.68-.35,5.94-1.94,8.31Z"/>
      <path class="cls-15" d="M258.55,153.52l-19.64.17c-.63,0-1.73,1.02-2.43.17,1.38-1.22,3.1-.53,4.44-.82,1.92-.43,2.97-.54,4.9-.19,3.16.58,7.8.19,10.87.13.39-.04,1.49-1.28,1.86.53Z"/>
      <path class="cls-16" d="M200.52,188.14l-.66.05c-.32-.57-.71-1.37-.12-2.14.51.95.69,1.37.78,2.08Z"/>
      <path class="cls-16" d="M200.93,189.68c-.65-.27-.8-1.02-1.07-1.49l.66-.05c.06.39.8.77.41,1.54Z"/>
    </g>
    <g>
      <path class="cls-21" d="M423.63,440.24l-.42-10.77-.38-8.7c-.05-1.02-.31-2.59.96-3.27-2.87-16.25-6.27-32.27-11.13-47.49-2.39-7.48-4.9-15.19-8.25-22.78-2.63-5.95-6.6-10.51-12.6-13l-22.97-9.52-15.71-6.44c.61-.34,1.13-.03,1.87.24l8.84,3.21,18.83-13.49-14.23,14.51c7.84-4.66,15.3-8.94,23.25-12.85l-3.29-9.35,5.74,3.87c1.6-3.48,3.68-7.03,2.36-9.99l8.99,7.2,3.94,3.67c1.68-1.88,2.71-3.44,4.62-4.95l12.22,12.52,9.78,12.72,22.12,16.35,3.4,1.77-1.6-7.17,7.02,5.09,11.56,7.95c-2.55,1.06-4.71.87-6.94.17,3.17,4.03,6.49,7.85,10.35,11.24-14.29,30.03-33.93,56.9-58.31,79.27Z"/>
      <path class="cls-6" d="M423.63,440.24c-.15.12-.44.31-.52.55.05-1.22-.36-2.27-.42-3.42l-.42-8.47-.56-9.05c-.84-13.63-2.91-26.49-6.72-39.27l-2.98-9.97c.3.07.56-.18.64-.59,4.86,15.22,8.26,31.24,11.13,47.49-1.27.68-1,2.25-.96,3.27l.38,8.7.42,10.77Z"/>
      <path class="cls-22" d="M417.84,317.83c.13.07.27.2.6.24-.07.44.42.72.78.87,1.33.54,2.55,1.23,4.37,1.14.06-.79-.45-1.07-.51-1.62,7.07,4.02,12.87,9.83,18.25,15.94.65.24,1.01.87,1.5,1.39,2.21,2.36,5.19,3.94,7.05,6.86l-33.56-24.96c.6-.08,1.14-.07,1.53.14Z"/>
      <path class="cls-25" d="M417.04,323.08c-3.97-2.69-7.41-5.49-10.66-9.02,4.5,1.94,7.83,5.18,10.66,9.02Z"/>
      <path class="cls-6" d="M423.07,318.46c.06.56.57.83.51,1.62-1.81.08-3.04-.61-4.37-1.14.37-.32.29-.72-.15-1.07-.2-.16-.49-.44-.63.2-.32-.04-.47-.18-.6-.24.18-1.45-1.48-1.75-1.95-3.45l7.18,4.08Z"/>
      <path class="cls-16" d="M416.31,317.68c-.37.06-.58-.02-.8-.3-.1-.13-.13-.52.16-.74.02-.02.75.4.63,1.04Z"/>
      <path class="cls-6" d="M419.22,318.94c-.36-.15-.85-.42-.78-.87.14-.64.42-.36.63-.2.45.35.53.74.15,1.07Z"/>
    </g>
    <g>
      <path class="cls-16" d="M352.49,276.09c-.37,0-.46.26-.52.49l-8.48,8.23.35.39,7.63-7.11c.5-.46.71-.75.5-1.51.28-.01.58-.05.77.03.38.15.78-.05.78-.53-.49-.98.65-1.47.95-.7.22.56.65,1.22.36,1.72-.11.18-.22.15.36.64l-24.23,31.69-12.49-4.76c-.68-.26-2.15-.64-2.82-.39l-23.18,18.4-26.61,73.42,37.64-33.46-14.05,52.03,49.86-71.33-7.31,69.15,22.7-47.13,2.07,69.34c4.06-8.13,6.61-16.88,8.4-25.93l4.94-25.05c2.34-11.84,6.09-22.92,11.83-33.62,2.55-4.76,4.34-9.39,7.62-13.58-9.2,18.81-13.98,32.53-14.9,54.57l-.48,11.51c2.96-5.05,4.85-10.02,6.91-15.43,5.53-14.49,11.56-28.61,19.85-42.06,1.99,16,.31,30.78-1.4,46.14,3.95-13.43,5.37-27.43,4.65-40.98,3.34,7.2,5.8,13.63,7.81,20.35l2.98,9.97c3.81,12.78,5.89,25.65,6.72,39.27l.56,9.05.42,8.47c.06,1.16.47,2.2.42,3.42-16.7,15.47-35.67,28.69-56.01,39.21-62.71,32.44-136.94,35.68-202.3,8.64-25.51-10.55-49.09-25.3-70.32-43.67l12.12-31.25,4.96-13.5,12,33.33c2.34,6.51,4.43,12.59,7.65,18.87-2.05-8-4.82-15.54-6.41-23.74l-.96-10.13-.6-45.05c4.12,8.38,7.65,16.31,13.59,23.69-.64-11.15-2.76-22.06-5.88-33.04l-3.63-12.75c.19-.03.38-.17.47-.41l13.07,41.14c2.24,7.04,5.11,13.44,10.39,19.16l-3.07-22c-1.22-8.75-.9-17.44.82-25.8l7.96,18.65,13.35-18.66c.42,5.88-.41,11.13-1.64,16.71-2.57,11.68-6.56,22.51-10.21,34.03,6.72-12.17,12.14-24.69,17.48-37.58,3.53-8.51,4.35-17.2,6.39-25.78,3.97-7.24,11.38-12.09,17.43-17.94l-11.92.44,54.96-21.98-15.35,1.06c8.49-3.59,16.89-5.69,25.7-7.67l-37.64.31c-6.69.06-12.87.93-19.11,2.41,5.81-4.05,11.8-6.28,18.25-8.25,12.62-3.84,25.49-5.94,38.82-6.52l17.39.13c11.07.73,22.02,1.72,32.78,4.51,5.61,1.45,10.45,3.71,15.18,7,.09-.96-.69-1.41-.99-1.81,5.5-4.94,10.61-10.02,15.45-15.63,2.19-2.54,4.68-4.33,7.46-6.1l10.68-6.79c.15.54,1.21.65,1.41.95.36.54-.36.99-.33,1.12Z"/>
      <path class="cls-16" d="M393.67,406.41l5.67-6.95c3.27-4.01,7.08-7.42,12.19-8.87-5.43,5.8-10.84,11.06-17.86,15.83Z"/>
      <path class="cls-16" d="M343.83,285.2l-.35-.39,8.48-8.23c.21.76,0,1.04-.5,1.51"/>
      <path class="cls-16" d="M353.52,276.08c0,.48-.4.68-.78.53-.19-.08-.5-.05-.77-.03.07-.23.15-.49.52-.49h1.03Z"/>
    </g>
  </g>
  <g id="Generative_Object-2" data-name="Generative Object">
    <g id="Original_Art" data-name="Original Art">
      <g id="Generative_Object-3" data-name="Generative Object">
        <polygon class="cls-8" points="0 511.74 0 0 511.99 0 511.99 511.99 0 511.99 0 511.74"/>
        <path class="cls-4" d="M367.19,261.24l-15.79,12.78-10.68,6.79c-2.77,1.76-5.26,3.56-7.46,6.1-4.84,5.6-9.94,10.69-15.45,15.63l-10.97-14.73-3.29-4.71-7.04-4.47c-.6-.38-1.32-.79-2.04-1.04-.11-.8.13-1.6.43-2.53,2.38-7.36,3.86-14.62,4.76-22.56,6.6.83,9.54-5.55,11.66-12.03,27.17-8.51,50.15-26.12,65.23-49.84.89-1.4,1.62-2.63,1.68-4.11,1,.15,1.31-.82,1.58-1.51l1.3-3.33c.2-.52.39-.81.38-1.62-.01-.98.32-2.24.59-3.44.93-4.09-1.23-7.76-5.26-8.89-7.91-2.23-22.44.73-31.91,2.68l-34.28,7.09c-1.73-10.7-3.02-21.49-5.43-31.95-.32-.19-.36-1.03.11-1.35.23-.16-.79-.12-.84-.41-.33-1.86-1.34-3.47-2.47-5.27l-14.22-22.63c-2.76-4.39-7.4-6.29-12.32-4.31l-9.96,4c-5.96,2.4-12.39,2.27-18.53.56l-10.55-2.93c-5.78-1.61-11.55.67-15.4,5.55-6.59,8.36-12.12,17.87-14.81,28.36-2.8,10.92-3.63,21.78-5.54,32.5l-27.23-4.34c-8.34-1.34-16.56-2.6-24.76-1.51l-2.71.36c-.05-.56-.43-.64-.98-.6-5.67.37-12.72,2.52-13.17,7.56-.74,8.32,7.23,20.19,13.16,27.06,14.73,17.08,34.07,28.78,55.65,34.69.22,2.43,1.41,4.31,2.06,6.44.43,1.43,1.26,2.01,2.31,2.88,3.73,3.08,4.71,1.84,8.76,2.09-1.47,1.55,1.66,18.6,3.14,25.68-4.21,1.81-7.43,4.93-10.01,9.13-4.55,7.41-9.94,13.83-15.4,20.39l-57.61,25.45c-4.12,1.82-7.91,3.69-11.29,6.19l-7.69-4.43-8.01-6.31-13.23,11.43c-4.15,3.59-8.65,6.46-13.73,8.72l-9.83,4.38c-.37-1.11.58-.87.78-1.1.28-.33-.15-.78-.54-.64-1.65-.81-1.76-2.9-2.05-4.55-.28.63-.39.92-1.06.76l-.39-2.17c-.23-1.29-1.09-1.93-1.17-3.38-1.33.82-1.7,1.81-1.39,3.08-.89-.27-1.38.29-1.23.9.1.44.12.81.88,1.06-.29.38-1.03-.18-1.25-.29-.25.68-.43,1.14-.7,1.31-.39.26-.99.31-1.59-.19-.68.94,1.18,2.53.11,3.17-.42.25-.96.08-1.88-.4.13.86.63,1.65.14,2.56-.44-.42-.99-.66-1.51-.54-.19.05-.23.42-.09.65l.48.81c.33.56-.11,1.1-.44.99-.27-.09-.45-.92-1.5-.7l1.63,2.7c-.74-.67-1.46-1.11-2.32-.62-.52.29-.3.94,0,1.91-.34.24-1.44.74-1.79,1.27-.44-.44-1.78-1.45-2.29-.5-.12.22.62,1.17.38,1.18-1.06.06-.48,2.21-2.22,3.46-1.09-1.6-1.34-3.21-1.68-5.05-1.83.51-1.38,4.12-3.38,5.54-.01-1.26-.37-2.09-1.66-2.72.53-.41,1.13-1,.93-1.54l-.56-1.54c-.09-.24.16-1.14-.08-1-.16.09-1.11,0-1.05-.25.15-.61.58-1.32.38-1.73-.29-.62-.95-.63-1.33-.38.78-1.27.21-1.72-.08-2.31.21-.78.26-1.34-.58-1.69-.1,1.53-.76,2.71-1.44,3.61.14.4.73,1.37.22,1.6l-1.37.63c.54.39.71.52.82.68.18.25.16.65,0,.74s-1.13-.12-1.23.04c-.4.64.77,1.43,1.48,1.66-1.15.03-2.36.16-2.06,1.38.13.52.41.99,1.06,1.73-.97-.28-2.19-.3-2.6.57.42.4.72,1.12.19,1.32-.41.15-.79.14-1.27.22C10,320.51.43,267.02,9.9,214.06c3.81-21.29,10.24-41.85,19.2-61.32C56.28,93.72,105.09,46.56,165.04,21.8,230.11-5.08,304.6-1.7,367.06,30.68c20.76,10.76,40.05,24.35,57.44,40.44,44.22,40.92,73.02,96.92,80.27,156.4,5.27,43.24-2.26,86.87-19.44,125.81l-13-9.09c-7.08-4.95-14.18-9.63-20.7-15.74-1.84.69-3.11.28-4.42-.7-7.07-5.29-13.57-11.77-19.67-18.18-2.15.35-3.98-.03-5.31-1.84-5.51-7.56-11.34-14.64-17.75-21.66-3.59-3.93-6.86-7.53-9.24-12.29-1.34-.21-2.53-.31-3.65-.82l-5.71-8.28-9.02-11.01c-.44-.54-1.08-1.08-1.64-1.1-.48-.02-1.35.41-1.8.96l-6.25,7.65Z"/>
        <path class="cls-11" d="M294.48,277.58c-7.08-2.49-14.45-4.09-22.1-4.74l-5.83-.5c-14.69-1.25-36.44,1.58-49.07,7.47,2-2.09,4.57-2.84,7.15-3.56l11.62-3.23c-2.58-4.06-6.01-7.08-9.41-10.29-4.62-4.37-8.6-8.77-11.73-14.42-.34,2.51.08,4.46-1.34,5.95-4.04-.26-5.03.98-8.76-2.09-.85-2.35-2.99-5.25-3.57-9.02,34.84,8.42,71.17,7.34,105.39-3.26,29.03-8.99,56.2-28.17,71.39-53.38-.06,1.48-.79,2.71-1.68,4.11-15.08,23.72-38.06,41.33-65.23,49.84-2.11,6.48-5.06,12.85-11.66,12.03-.91,7.93-2.39,15.2-4.76,22.56-.3.93-.54,1.73-.43,2.53Z"/>
        <path class="cls-1" d="M296.52,278.62l7.04,4.47,3.29,4.71c-6.31-6.54-16.05-7.81-25.32-6.01l-24.58,4.77c11.18,1.01,22.04,2.8,32.66,6.25-2.35.85-4.41-.04-6.6-.18l-12.74-.79-34.88.12c-7.52.03-14.59,1.32-21.92,3.23.88-1.28,2.43-1.27,3.64-1.98l20.01-12.22-13.53,3.49c6.28-3.7,12.83-7.51,20.4-9.42,15.23-3.84,35.05-1.48,49.01,2.69,1.22.36,2.25,1.19,3.53.87Z"/>
        <path class="cls-5" d="M355.18,277.74c-.58-.48-.46-.46-.36-.64.3-.5-.14-1.16-.36-1.72-.3-.77-1.43-.29-.95.7h-1.03c-.04-.12.69-.57.33-1.11-.2-.3-1.26-.41-1.41-.95l15.79-12.78-12.01,16.5Z"/>
        <path class="cls-6" d="M361.01,301.03c-.13-.54-.39-.41-.7-.28l-.82.34c-.83.35-1.24.72-2.05.3,1.39-1.64,5.74-1.63,6.86-7.17.39-.18.99-.77,1.13-.99.16-.26,1.19.28.39,1.1,1.34.54,2.17-1.02,2.97-1.58l2.8-1.96,4.05-1.6-12,10.06-2.63,1.77Z"/>
        <path class="cls-2" d="M297.93,289.22c7.06.48,11.42,4.61,15.96,10.5-5.67-2.92-10.53-6.54-15.96-10.5Z"/>
        <path class="cls-6" d="M363.33,291.1c-1.39.42-1.77,1.56-2.45,2.45l-10.78,14.1c-.4-1.56.98-2.47,1.83-3.51,5.39-6.56,9.98-13.37,14.26-20.65.68.8-.1,1.46-.31,1.78-.44.66-.12,1.17.4,1.72-1.01-.25-1.37.23-1.56.52-.15.22-.11.62.33,1.36-.76-.06-.92-.03-1.52.46-.47.38-.47,1-.19,1.78Z"/>
        <path class="cls-6" d="M361.01,301.03c-3.71,2.51-7.03,5.42-10.56,8.58l6.99-8.22c.81.43,1.22.05,2.05-.3l.82-.34c.31-.13.57-.26.7.28Z"/>
        <path class="cls-6" d="M400.24,284.85c-1.44.04-2.06-1.31-2.77-2.31-1.29-1.82-3.3-3.43-2.75-6.14,1.39,3.12,2.96,5.61,5.52,8.45Z"/>
        <path class="cls-6" d="M346.92,308.35l-5.69,4.74c-.35.15-.58-.03-.69-.17l5.67-4.85c.3-.26.72-.06.7.28Z"/>
        <path class="cls-6" d="M344.17,314.61c.75-1.61,2.09-3.43,4.45-3.55l-4.45,3.55Z"/>
        <path class="cls-6" d="M374.99,270.35c.2.64-1.39,2.1-1.51,1.49-.09-.43.27-.63.39-.91l.36-.84c.08-.18.68-.02.76.26Z"/>
        <path class="cls-6" d="M353.12,318.27c-1.04.01-1.85-.47-2.72-.94,1.43-.97,2.05.67,2.72.94Z"/>
        <path class="cls-6" d="M346.33,314.83c.48-.47,1.11-.16,1.11-.01,0,.22-.44.59-.7.77-.38.26-1.01-.16-.42-.76Z"/>
        <path class="cls-12" d="M305.22,145.56c2.41,10.46,3.7,21.25,5.43,31.95l.35,3.02c1.67.96,2.06,2.52,2.34,4.2l1.39,8.55,13.87,5.66c4.79,1.95-1.42,6.8-6.88,9.96-16.3,9.43-34.27,15-53.17,16.66l-17.11,1.51c1.85-1.16,3.69-.95,5.51-1.58l20.74-7.13c8.39-2.88,17.04-4.63,24.65-9.34l4.06-2.51c3.75-2.32,7.66-5.35,8.49-10.28-2.07,4.42-5.65,7.62-9.98,10.31-12.68,7.88-26.95,11.92-42.4,12.93-18.15,1.18-35.9-.89-52.36-8.03-4.29-1.86-8.04-4.2-11.1-7.41l-2.16-4.64c-4.56,2.1-9.52,3-14.08,2.46-1.85,3.76-7.58,1.12-8.79,3.16-4.79-1.05-9.75-1.86-13.99-4.34-3.39-1.98-6.71-4.03-9.95-6.53.05,1.74.65,3.16,1.09,4.6l.92,3.07c-2.47-1.83-3.71-4.92-6.08-7.18-.32-.3-1.76-.1-2.17-.05-.48.06-.47.94-.91,1.6-3.82-4.99-9.64-13.62-6.77-18.03,1.87-2.87,6.32-3.56,9.81-4.03l2.71-.36c8.19-1.09,16.42.17,24.76,1.51l27.23,4.34c-.39,2.18-.29,4.31-1.55,6.56-.71,1.27-.3,3.16-.48,4.35-.73,4.89-2.12,9.25,1.29,12.78l1.98-8.11c.1-.47-.02-.99.6-1.57,12.73,9.3,30.63,11.42,46.06,11.1l7.42-.16c1.65-.03,3.37-.15,5.14-.28l4.86-.36c0-.06-.05-.25-.26-.34l-8.34.08-1.41.44c-11.9.02-23.81-.72-35.37-4.12-16.68-4.9-19.9-10.41-19.7-10.33,1.06-.52,1.11.55,1.58.96,5.28,4.58,11.99,6.86,18.92,8.49l6.25-29.35c.63-2.96,1.31-5.77,2.43-8.55,4.09-10.19,17.75-4.17,34.22-7.82,7.9-1.75,14.89-5.97,19.46-12.46,4.65-1.3,8.35,5.54,15.19,6.98,2.54.53,5.09,0,6.23-2.37Z"/>
        <path class="cls-6" d="M381.5,180.07c-.48,0-.68.42-.52.78.11.25,0,.51.13.83-1.32,1.26-2.17,3.19-2.88,4.84-15.2,25.21-42.37,44.4-71.39,53.38-34.22,10.59-70.55,11.67-105.39,3.26.58,3.77,2.72,6.67,3.57,9.02-1.05-.87-1.88-1.45-2.31-2.88-.64-2.13-1.84-4.01-2.06-6.44-21.58-5.91-40.92-17.61-55.65-34.69-5.93-6.87-13.91-18.74-13.16-27.06.45-5.04,7.5-7.19,13.17-7.56.55-.04.93.04.98.6-3.49.46-7.94,1.16-9.81,4.03-2.88,4.4,2.95,13.03,6.77,18.03,4.21,5.51,9.02,10.52,14.17,15.2l-5.01-9.57-.92-3.07c.25-.45.12-.99.76-1.44,2.4,2.69,8.65,4.57,7.83,4.77.26-.06.51-.51.42-.74l-.16-.66c4.25,2.48,9.2,3.29,13.99,4.34,8.02,1.75,18.7,3.58,25.03-.99,3.06,3.21,6.81,5.55,11.1,7.41,16.45,7.14,34.21,9.22,52.36,8.03,15.46-1.01,29.72-5.05,42.4-12.93,4.33-2.69,7.9-5.89,9.98-10.31-.84,4.92-4.74,7.95-8.49,10.28l-4.06,2.51c-7.62,4.72-16.27,6.46-24.65,9.34l-20.74,7.13c-1.83.63-3.67.42-5.51,1.58l17.11-1.51c18.9-1.66,36.87-7.23,53.17-16.66,5.46-3.16,11.67-8,6.88-9.96l-13.87-5.66-1.39-8.55c-.27-1.68-.67-3.24-2.34-4.2l-.35-3.02,34.28-7.09c9.48-1.95,24-4.91,31.91-2.68,4.03,1.14,6.19,4.8,5.26,8.89-.27,1.2-.6,2.47-.59,3.44Z"/>
        <path class="cls-16" d="M378.24,186.52c.72-1.65,1.57-3.58,2.88-4.84l-1.3,3.33c-.27.69-.58,1.66-1.58,1.51Z"/>
        <path class="cls-16" d="M381.12,181.68c-.14-.32-.02-.58-.13-.83-.16-.37.04-.79.52-.78,0,.8-.18,1.09-.38,1.62Z"/>
        <g>
          <path class="cls-12" d="M122.62,341.11c-3.16,2.34-4.67,6.15-6.33,9.84-4.19,10.29-7.39,20.43-10.88,31.15l-18.27,56.14c-22.34-20.85-39.89-44.88-53.3-71.11.47-.09.86-.07,1.27-.22.54-.2.23-.93-.19-1.32.41-.87,1.63-.84,2.6-.57-.65-.74-.93-1.21-1.06-1.73-.31-1.22.9-1.35,2.06-1.38-.71-.23-1.88-1.02-1.48-1.66.1-.16,1.06.06,1.23-.04s.19-.49,0-.74c-.11-.16-.28-.3-.82-.68l1.37-.63c.5-.23-.08-1.2-.22-1.6.68-.9,1.33-2.08,1.44-3.61.84.34.79.91.58,1.69.29.59.86,1.04.08,2.31.37-.26,1.03-.24,1.33.38.2.41-.24,1.13-.38,1.73-.06.25.89.34,1.05.25.24-.14,0,.76.08,1l.56,1.54c.2.55-.4,1.13-.93,1.54,1.3.63,1.65,1.46,1.66,2.72,2-1.41,1.55-5.03,3.38-5.54.34,1.84.59,3.45,1.68,5.05,1.74-1.24,1.17-3.4,2.22-3.46.24-.01-.5-.96-.38-1.18.5-.95,1.85.06,2.29.5.35-.53,1.45-1.02,1.79-1.27-.29-.97-.52-1.62,0-1.91.87-.49,1.59-.05,2.32.62l-1.63-2.7c1.05-.22,1.23.61,1.5.7.32.11.77-.43.44-.99l-.48-.81c-.14-.23-.1-.6.09-.65.52-.13,1.06.11,1.51.54.5-.91-.01-1.7-.14-2.56.92.47,1.46.64,1.88.4,1.07-.64-.79-2.23-.11-3.17.6.5,1.2.45,1.59.19.26-.17.45-.64.7-1.31.22.11.96.67,1.25.29-.76-.26-.78-.62-.88-1.06-.14-.61.35-1.16,1.23-.9-.3-1.27.06-2.27,1.39-3.08.08,1.45.94,2.09,1.17,3.38l.39,2.17c.67.16.78-.13,1.06-.76.29,1.65.4,3.73,2.05,4.55.39-.14.82.31.54.64-.2.23-1.15,0-.78,1.1l9.83-4.38c5.07-2.26,9.58-5.13,13.73-8.72l13.23-11.43,8.01,6.31,7.69,4.43Z"/>
          <path class="cls-3" d="M55.72,359.34c.07-.48.68-.33.77-.02.05.19.1.53-.2.74-.15.11-.62-.32-.57-.72Z"/>
          <path class="cls-20" d="M55.55,360.97c.31-.57.67-.02.76.13.12.2.08.43-.08.52-.38.22-.94-.17-.68-.65Z"/>
        </g>
        <path class="cls-26" d="M199.06,204.03c-6.33,4.57-17.01,2.74-25.03.99,1.2-2.04,6.94.6,8.79-3.16,4.57.54,9.52-.36,14.08-2.46l2.16,4.64Z"/>
        <path class="cls-19" d="M152.1,201.83l5.01,9.57c-5.15-4.68-9.96-9.69-14.17-15.2.44-.66.43-1.54.91-1.6.41-.05,1.85-.25,2.17.05,2.38,2.26,3.61,5.35,6.08,7.18Z"/>
        <path class="cls-23" d="M201.92,195.22l-1.98,8.11c-3.4-3.53-2.01-7.89-1.29-12.78l2.59,1.44c-.14,1.19.2,2.3.68,3.23Z"/>
        <path class="cls-17" d="M160.04,200.68l.16.66c.08.22-.16.67-.42.74.82-.2-5.43-2.08-7.83-4.77-.64.45-.52.99-.76,1.44-.44-1.45-1.04-2.87-1.09-4.6,3.24,2.51,6.56,4.55,9.95,6.53Z"/>
        <path class="cls-10" d="M256,204.58v-.46s1.41-.44,1.41-.44l8.34-.08c.2.09.26.28.26.34l-4.86.36c-1.77.13-3.49.24-5.14.28Z"/>
        <g>
          <path class="cls-18" d="M304.48,143.8c.13.73-.77,1.73-1.65,2.38-3.83,2.81-10.64-2.56-13.92-8.5-1.81-3.29-1.6-7.07-2.18-10.61-.72,3.69-.13,7.3-1.64,10.68-.45,1.02-.8,2.5-1.3,3.2-4.57,6.48-11.56,10.71-19.46,12.46-16.47,3.65-30.13-2.37-34.22,7.82-1.11,2.78-1.8,5.59-2.43,8.55l-6.25,29.35c-6.94-1.63-13.64-3.92-18.92-8.49-.48-.41-.53-1.48-1.58-.96.39-.77-.35-1.15-.41-1.54-.09-.71-.26-1.13-.78-2.08-.6.77-.2,1.57.12,2.14.26.47.42,1.22,1.07,1.49-.21-.09,3.02,5.43,19.7,10.33,11.57,3.4,23.47,4.14,35.37,4.12v.46s-7.42.16-7.42.16c-15.42.33-33.33-1.8-46.06-11.1-.62.58-.5,1.1-.6,1.57-.48-.94-.81-2.04-.68-3.23l-2.59-1.44c.18-1.19-.23-3.08.48-4.35,1.26-2.25,1.16-4.38,1.55-6.56,1.91-10.72,2.73-21.58,5.54-32.5,2.69-10.49,8.22-20,14.81-28.36,3.84-4.88,9.62-7.15,15.4-5.55l10.55,2.93c6.14,1.71,12.57,1.83,18.53-.56l9.96-4c4.92-1.98,9.56-.08,12.32,4.31l14.22,22.63c1.13,1.8,2.14,3.41,2.47,5.27Z"/>
          <path class="cls-14" d="M304.48,143.8c.05.29,1.07.25.84.41-.46.32-.43,1.16-.11,1.35-1.14,2.36-3.69,2.9-6.23,2.37-6.84-1.44-10.53-8.28-15.19-6.98.5-.7.85-2.18,1.3-3.2,1.51-3.38.92-7,1.64-10.68.58,3.55.36,7.32,2.18,10.61,3.27,5.94,10.08,11.32,13.92,8.5.88-.64,1.78-1.65,1.65-2.38Z"/>
          <path class="cls-11" d="M249.05,145.83c-8.92.19-17.97-.66-20.4-9.92-1.32-5.01-.68-10.43,1.48-15.15,1.75-4.24,5.89-6.25,10.36-5.09l11.17,2.9c-3.08,2.14-5.98,4.23-7.79,7.44-3.85,6.81-1.52,15.44,5.19,19.82Z"/>
          <path class="cls-13" d="M294.74,141.08c-1.2,1.78-4.64-2.93-5.34-5.44-1.57-5.63-2.15-11.31-1.67-17.44,2.25,2.03,3.41,4.15,4.8,6.43,1.56,2.56,3.69,5.02,4.15,8.15.4,2.68-.35,5.94-1.94,8.31Z"/>
          <path class="cls-15" d="M258.55,153.52l-19.64.17c-.63,0-1.73,1.02-2.43.17,1.38-1.22,3.1-.53,4.44-.82,1.92-.43,2.97-.54,4.9-.19,3.16.58,7.8.19,10.87.13.39-.04,1.49-1.28,1.86.53Z"/>
          <path class="cls-16" d="M200.52,188.14l-.66.05c-.32-.57-.71-1.37-.12-2.14.51.95.69,1.37.78,2.08Z"/>
          <path class="cls-16" d="M200.93,189.68c-.65-.27-.8-1.02-1.07-1.49l.66-.05c.06.39.8.77.41,1.54Z"/>
        </g>
        <g>
          <path class="cls-21" d="M423.63,440.24l-.42-10.77-.38-8.7c-.05-1.02-.31-2.59.96-3.27-2.87-16.25-6.27-32.27-11.13-47.49-2.39-7.48-4.9-15.19-8.25-22.78-2.63-5.95-6.6-10.51-12.6-13l-22.97-9.52-15.71-6.44c.61-.34,1.13-.03,1.87.24l8.84,3.21,18.83-13.49-14.23,14.51c7.84-4.66,15.3-8.94,23.25-12.85l-3.29-9.35,5.74,3.87c1.6-3.48,3.68-7.03,2.36-9.99l8.99,7.2,3.94,3.67c1.68-1.88,2.71-3.44,4.62-4.95l12.22,12.52,9.78,12.72,22.12,16.35,3.4,1.77-1.6-7.17,7.02,5.09,11.56,7.95c-2.55,1.06-4.71.87-6.94.17,3.17,4.03,6.49,7.85,10.35,11.24-14.29,30.03-33.93,56.9-58.31,79.27Z"/>
          <path class="cls-6" d="M423.63,440.24c-.15.12-.44.31-.52.55.05-1.22-.36-2.27-.42-3.42l-.42-8.47-.56-9.05c-.84-13.63-2.91-26.49-6.72-39.27l-2.98-9.97c.3.07.56-.18.64-.59,4.86,15.22,8.26,31.24,11.13,47.49-1.27.68-1,2.25-.96,3.27l.38,8.7.42,10.77Z"/>
          <path class="cls-22" d="M417.84,317.83c.13.07.27.2.6.24-.07.44.42.72.78.87,1.33.54,2.55,1.23,4.37,1.14.06-.79-.45-1.07-.51-1.62,7.07,4.02,12.87,9.83,18.25,15.94.65.24,1.01.87,1.5,1.39,2.21,2.36,5.19,3.94,7.05,6.86l-33.56-24.96c.6-.08,1.14-.07,1.53.14Z"/>
          <path class="cls-25" d="M417.04,323.08c-3.97-2.69-7.41-5.49-10.66-9.02,4.5,1.94,7.83,5.18,10.66,9.02Z"/>
          <path class="cls-6" d="M423.07,318.46c.06.56.57.83.51,1.62-1.81.08-3.04-.61-4.37-1.14.37-.32.29-.72-.15-1.07-.2-.16-.49-.44-.63.2-.32-.04-.47-.18-.6-.24.18-1.45-1.48-1.75-1.95-3.45l7.18,4.08Z"/>
          <path class="cls-16" d="M416.31,317.68c-.37.06-.58-.02-.8-.3-.1-.13-.13-.52.16-.74.02-.02.75.4.63,1.04Z"/>
          <path class="cls-6" d="M419.22,318.94c-.36-.15-.85-.42-.78-.87.14-.64.42-.36.63-.2.45.35.53.74.15,1.07Z"/>
        </g>
        <g>
          <path class="cls-16" d="M352.49,276.09c-.37,0-.46.26-.52.49l-8.48,8.23.35.39,7.63-7.11c.5-.46.71-.75.5-1.51.28-.01.58-.05.77.03.38.15.78-.05.78-.53-.49-.98.65-1.47.95-.7.22.56.65,1.22.36,1.72-.11.18-.22.15.36.64l-24.23,31.69-12.49-4.76c-.68-.26-2.15-.64-2.82-.39l-23.18,18.4-26.61,73.42,37.64-33.46-14.05,52.03,49.86-71.33-7.31,69.15,22.7-47.13,2.07,69.34c4.06-8.13,6.61-16.88,8.4-25.93l4.94-25.05c2.34-11.84,6.09-22.92,11.83-33.62,2.55-4.76,4.34-9.39,7.62-13.58-9.2,18.81-13.98,32.53-14.9,54.57l-.48,11.51c2.96-5.05,4.85-10.02,6.91-15.43,5.53-14.49,11.56-28.61,19.85-42.06,1.99,16,.31,30.78-1.4,46.14,3.95-13.43,5.37-27.43,4.65-40.98,3.34,7.2,5.8,13.63,7.81,20.35l2.98,9.97c3.81,12.78,5.89,25.65,6.72,39.27l.56,9.05.42,8.47c.06,1.16.47,2.2.42,3.42-16.7,15.47-35.67,28.69-56.01,39.21-62.71,32.44-136.94,35.68-202.3,8.64-25.51-10.55-49.09-25.3-70.32-43.67l12.12-31.25,4.96-13.5,12,33.33c2.34,6.51,4.43,12.59,7.65,18.87-2.05-8-4.82-15.54-6.41-23.74l-.96-10.13-.6-45.05c4.12,8.38,7.65,16.31,13.59,23.69-.64-11.15-2.76-22.06-5.88-33.04l-3.63-12.75c.19-.03.38-.17.47-.41l13.07,41.14c2.24,7.04,5.11,13.44,10.39,19.16l-3.07-22c-1.22-8.75-.9-17.44.82-25.8l7.96,18.65,13.35-18.66c.42,5.88-.41,11.13-1.64,16.71-2.57,11.68-6.56,22.51-10.21,34.03,6.72-12.17,12.14-24.69,17.48-37.58,3.53-8.51,4.35-17.2,6.39-25.78,3.97-7.24,11.38-12.09,17.43-17.94l-11.92.44,54.96-21.98-15.35,1.06c8.49-3.59,16.89-5.69,25.7-7.67l-37.64.31c-6.69.06-12.87.93-19.11,2.41,5.81-4.05,11.8-6.28,18.25-8.25,12.62-3.84,25.49-5.94,38.82-6.52l17.39.13c11.07.73,22.02,1.72,32.78,4.51,5.61,1.45,10.45,3.71,15.18,7,.09-.96-.69-1.41-.99-1.81,5.5-4.94,10.61-10.02,15.45-15.63,2.19-2.54,4.68-4.33,7.46-6.1l10.68-6.79c.15.54,1.21.65,1.41.95.36.54-.36.99-.33,1.12Z"/>
          <path class="cls-16" d="M393.67,406.41l5.67-6.95c3.27-4.01,7.08-7.42,12.19-8.87-5.43,5.8-10.84,11.06-17.86,15.83Z"/>
          <path class="cls-16" d="M343.83,285.2l-.35-.39,8.48-8.23c.21.76,0,1.04-.5,1.51"/>
          <path class="cls-16" d="M353.52,276.08c0,.48-.4.68-.78.53-.19-.08-.5-.05-.77-.03.07-.23.15-.49.52-.49h1.03Z"/>
        </g>
      </g>
    </g>
    <g class="cls-7">
      <g id="Expanded_Art" data-name="Expanded Art">
        <rect class="cls-6" x="506.79" y="0" width="11.13" height="511.99"/>
      </g>
    </g>
  </g>
</svg>